#!OML:ASF E:\Style4\Style4.ASF
:FULLY-SPECIFIED
:DEGREES
1280
root 0.0632351 17.8088 -0.936117 0.221552 -2.34178 1.82369
lowerback 4.3746 4.70315 0.161218
upperback 0.269274 6.22707 -2.36372
thorax -1.88383 3.10127 -2.87454
lowerneck -4.59879 -5.2694 -4.8349
upperneck 12.9763 -7.23942 4.42304
head 4.98813 -3.51731 1.73151
rclavicle 3.06128e-014 7.95139e-016
rhumerus 59.0675 25.2602 -36.2704
rradius 76.2683
rwrist -40.8427
rhand -17.8564 27.3877
rfingers 7.12502
rthumb 8.4089 -2.42487
lclavicle 3.06128e-014 7.95139e-016
lhumerus -44.7959 -43.4718 106.142
lradius 68.5631
lwrist 0.184451
lhand -12.2356 20.8674
lfingers 7.12502
lthumb 13.83 50.3876
rfemur -11.0978 4.90509 16.4756
rtibia 30.7382
rfoot -18.602 -12.4198
rtoes -12.5521
lfemur -9.1634 -2.30997 -21.1042
ltibia 28.6969
lfoot -20.0642 10.5793
ltoes -15.5693
1281
root 0.0531664 17.8055 -0.932994 0.204421 -2.2106 1.74159
lowerback 4.36901 4.74894 0.272934
upperback 0.280977 6.2942 -2.35961
thorax -1.85386 3.13451 -2.93366
lowerneck -4.68843 -5.25123 -4.83474
upperneck 13.1167 -7.22153 4.46428
head 5.04717 -3.50363 1.74158
rclavicle -5.75979e-014 3.97569e-015
rhumerus 60.1523 26.3807 -34.7359
rradius 76.2025
rwrist -40.5359
rhand -17.8979 27.4841
rfingers 7.12502
rthumb 8.36884 -2.33006
lclavicle -5.75979e-014 3.97569e-015
lhumerus -44.8721 -43.5652 106.273
lradius 68.6351
lwrist 0.261966
lhand -12.3099 20.8881
lfingers 7.12502
lthumb 13.7583 50.4132
rfemur -11.0568 4.90568 16.6188
rtibia 30.7815
rfoot -18.6375 -12.5471
rtoes -12.5744
lfemur -9.19315 -2.36326 -20.9738
ltibia 28.7552
lfoot -20.0066 10.5015
ltoes -15.4817
1282
root 0.0451132 17.8032 -0.928345 0.160091 -2.09662 1.744
lowerback 4.36178 4.81572 0.327963
upperback 0.301289 6.3861 -2.38423
thorax -1.81545 3.18071 -2.99155
lowerneck -4.74711 -5.25725 -4.91398
upperneck 13.2694 -7.24172 4.58743
head 5.11253 -3.50776 1.78787
rclavicle -1.11145e-013 8.34896e-015
rhumerus 61.1729 27.4568 -33.1586
rradius 76.2263
rwrist -40.2276
rhand -17.2986 27.378
rfingers 7.12502
rthumb 8.9472 -2.41227
lclavicle -1.11145e-013 8.34896e-015
lhumerus -45.0059 -43.6985 106.452
lradius 68.6679
lwrist 0.481202
lhand -12.4748 20.8727
lfingers 7.12502
lthumb 13.5994 50.4085
rfemur -10.9812 4.87685 16.6535
rtibia 30.8204
rfoot -18.6969 -12.5958
rtoes -12.5864
lfemur -9.17925 -2.39779 -20.9483
ltibia 28.8374
lfoot -20.0218 10.474
ltoes -15.5756
1283
root 0.0370777 17.801 -0.924082 0.129143 -2.02261 1.80137
lowerback 4.34153 4.89346 0.313686
upperback 0.320371 6.48895 -2.42687
thorax -1.77579 3.23287 -3.02916
lowerneck -4.77679 -5.26967 -4.93064
upperneck 13.3794 -7.27062 4.66815
head 5.15649 -3.51633 1.81171
rclavicle -2.25372e-014 3.18055e-015
rhumerus 62.2109 28.5831 -31.5152
rradius 76.3771
rwrist -39.89
rhand -17.0451 26.9606
rfingers 7.12502
rthumb 9.19184 -2.81903
lclavicle -2.25372e-014 3.18055e-015
lhumerus -45.0544 -43.7652 106.523
lradius 68.7028
lwrist 0.503629
lhand -12.3065 20.8406
lfingers 7.12502
lthumb 13.7616 50.3655
rfemur -10.9408 4.85525 16.6265
rtibia 30.8773
rfoot -18.7512 -12.6262
rtoes -12.5033
lfemur -9.1711 -2.40243 -20.9837
ltibia 28.9217
lfoot -20.102 10.4154
ltoes -15.6817
